<svg width="1921" height="1077" viewBox="0 0 1921 1077" fill="none" xmlns="http://www.w3.org/2000/svg">
<g clip-path="url(#clip0_376_712)">
<path d="M-253.404 -17.6672L-253.404 1365.25L2148.16 1365.25V-17.6672L-253.404 -17.6672Z" fill="#ECECEC" stroke="#DFE4EE" stroke-width="1.76016" stroke-linecap="round" stroke-linejoin="round"/>
<path d="M-253.065 1076.39L2146.06 1076.39" stroke="#DABCC8" stroke-width="1.75748"/>
<path d="M-253.065 605.677L2146.06 605.677" stroke="#B6BAC4" stroke-width="1.75748"/>
<path d="M-253.065 807.409L2146.06 807.409" stroke="#B6BAC4" stroke-width="1.75748"/>
<path d="M-253.065 672.921L2146.06 672.921" stroke="#B6BAC4" stroke-width="1.75748"/>
<path d="M-253.065 538.433L2146.06 538.433" stroke="#B6BAC4" stroke-width="1.75748"/>
<path d="M-253.065 403.945L2146.06 403.945" stroke="#B6BAC4" stroke-width="1.75748"/>
<path d="M-253.065 471.189L2146.06 471.189" stroke="#B6BAC4" stroke-width="1.75748"/>
<path d="M-253.065 336.701L2146.06 336.701" stroke="#B6BAC4" stroke-width="1.75748"/>
<path d="M-253.065 269.457L2146.06 269.457" stroke="#B6BAC4" stroke-width="1.75748"/>
<path d="M-253.065 202.213L2146.06 202.213" stroke="#B6BAC4" stroke-width="1.75748"/>
<path d="M-253.065 134.969L2146.06 134.969" stroke="#B6BAC4" stroke-width="1.75748"/>
<path d="M-253.065 67.7251L2146.06 67.7251" stroke="#B6BAC4" stroke-width="1.75748"/>
<path d="M-253.065 0.480957L2146.06 0.480957" stroke="#B6BAC4" stroke-width="1.75748"/>
<path d="M-253.065 740.165L2146.06 740.165" stroke="#B6BAC4" stroke-width="1.75748"/>
<path d="M-253.065 874.653L2146.06 874.653" stroke="#B6BAC4" stroke-width="1.75748"/>
<path d="M-253.064 941.897L2146.06 941.897" stroke="#B6BAC4" stroke-width="1.75748"/>
<path d="M-253.065 1009.14L2146.06 1009.14" stroke="#B6BAC4" stroke-width="1.75748"/>
<path d="M548.957 -22.2764L551.039 1750.61" stroke="#B6BAC4" stroke-width="1.75748"/>
<path d="M274.682 -22.2765L276.763 1750.61" stroke="#B6BAC4" stroke-width="1.75748"/>
<path d="M457.532 -22.2764L459.614 1750.61" stroke="#B6BAC4" stroke-width="1.75748"/>
<path d="M640.383 -22.2765L642.464 1750.61" stroke="#B6BAC4" stroke-width="1.75748"/>
<path d="M823.233 -22.2765L825.315 1750.61" stroke="#B6BAC4" stroke-width="1.75748"/>
<path d="M731.808 -22.2765L733.89 1750.61" stroke="#B6BAC4" stroke-width="1.75748"/>
<path d="M914.659 -22.2764L916.74 1750.61" stroke="#B6BAC4" stroke-width="1.75748"/>
<path d="M1006.08 -22.2764L1008.17 1750.61" stroke="#B6BAC4" stroke-width="1.75748"/>
<path d="M1097.51 -22.2764L1099.59 1750.61" stroke="#B6BAC4" stroke-width="1.75748"/>
<path d="M1188.93 -22.2765L1191.02 1750.61" stroke="#B6BAC4" stroke-width="1.75748"/>
<path d="M1280.36 -22.2764L1282.44 1750.61" stroke="#B6BAC4" stroke-width="1.75748"/>
<path d="M1371.79 -22.2764L1373.87 1750.61" stroke="#B6BAC4" stroke-width="1.75748"/>
<path d="M366.106 -22.2764L368.188 1750.61" stroke="#B6BAC4" stroke-width="1.75748"/>
<path d="M183.256 -22.2765L185.338 1750.61" stroke="#B6BAC4" stroke-width="1.75748"/>
<path d="M91.8306 -22.2765L93.9125 1750.61" stroke="#B6BAC4" stroke-width="1.75748"/>
<path d="M0.405273 -22.2764L2.48709 1750.61" stroke="#B6BAC4" stroke-width="1.75748"/>
<path d="M1737.49 -22.2764L1739.57 1750.61" stroke="#B6BAC4" stroke-width="1.75748"/>
<path d="M1920.34 -22.2764L1922.42 1750.61" stroke="#B6BAC4" stroke-width="1.75748"/>
<path d="M1828.91 -22.2764L1830.99 1750.61" stroke="#B6BAC4" stroke-width="1.75748"/>
<path d="M1646.06 -22.2764L1648.14 1750.61" stroke="#B6BAC4" stroke-width="1.75748"/>
<path d="M1554.64 -22.2764L1556.72 1750.61" stroke="#B6BAC4" stroke-width="1.75748"/>
<path d="M1463.21 -22.2764L1465.29 1750.61" stroke="#B6BAC4" stroke-width="1.75748"/>
<path d="M46.1182 -22.2764L48.2 1750.61" stroke="#DFE4EE" stroke-width="1.75748"/>
<path d="M23.2617 -22.2764L25.3435 1750.61Z" fill="#D5DCE5"/>
<path d="M23.2617 -22.2764L25.3435 1750.61" stroke="#DFE4EE" stroke-width="1.75748"/>
<path d="M68.9741 -22.2764L71.0559 1750.61" stroke="#DFE4EE" stroke-width="1.75748"/>
<path d="M777.52 -22.2764L779.602 1750.61" stroke="#DFE4EE" stroke-width="1.75748"/>
<path d="M754.664 -22.2764L756.746 1750.61Z" fill="#D5DCE5"/>
<path d="M754.664 -22.2764L756.746 1750.61" stroke="#DFE4EE" stroke-width="1.75748"/>
<path d="M800.377 -22.2764L802.459 1750.61" stroke="#DFE4EE" stroke-width="1.75748"/>
<path d="M686.095 -22.2764L688.177 1750.61" stroke="#DFE4EE" stroke-width="1.75748"/>
<path d="M663.239 -22.2764L665.321 1750.61Z" fill="#D5DCE5"/>
<path d="M663.239 -22.2764L665.321 1750.61" stroke="#DFE4EE" stroke-width="1.75748"/>
<path d="M708.951 -22.2764L711.033 1750.61" stroke="#DFE4EE" stroke-width="1.75748"/>
<path d="M594.67 -22.2764L596.752 1750.61" stroke="#DFE4EE" stroke-width="1.75748"/>
<path d="M571.813 -22.2764L573.895 1750.61Z" fill="#D5DCE5"/>
<path d="M571.813 -22.2764L573.895 1750.61" stroke="#DFE4EE" stroke-width="1.75748"/>
<path d="M617.526 -22.2764L619.608 1750.61" stroke="#DFE4EE" stroke-width="1.75748"/>
<path d="M503.245 -22.2764L505.326 1750.61" stroke="#DFE4EE" stroke-width="1.75748"/>
<path d="M480.388 -22.2764L482.47 1750.61Z" fill="#D5DCE5"/>
<path d="M480.388 -22.2764L482.47 1750.61" stroke="#DFE4EE" stroke-width="1.75748"/>
<path d="M526.101 -22.2764L528.183 1750.61" stroke="#DFE4EE" stroke-width="1.75748"/>
<path d="M411.819 -22.2764L413.901 1750.61" stroke="#DFE4EE" stroke-width="1.75748"/>
<path d="M388.963 -22.2764L391.045 1750.61Z" fill="#D5DCE5"/>
<path d="M388.963 -22.2764L391.045 1750.61" stroke="#DFE4EE" stroke-width="1.75748"/>
<path d="M434.676 -22.2764L436.758 1750.61" stroke="#DFE4EE" stroke-width="1.75748"/>
<path d="M320.394 -22.2764L322.476 1750.61" stroke="#DFE4EE" stroke-width="1.75748"/>
<path d="M297.538 -22.2764L299.619 1750.61Z" fill="#D5DCE5"/>
<path d="M297.538 -22.2764L299.619 1750.61" stroke="#DFE4EE" stroke-width="1.75748"/>
<path d="M343.25 -22.2764L345.332 1750.61" stroke="#DFE4EE" stroke-width="1.75748"/>
<path d="M228.969 -22.2764L231.051 1750.61" stroke="#DFE4EE" stroke-width="1.75748"/>
<path d="M206.112 -22.2764L208.194 1750.61Z" fill="#D5DCE5"/>
<path d="M206.112 -22.2764L208.194 1750.61" stroke="#DFE4EE" stroke-width="1.75748"/>
<path d="M251.825 -22.2764L253.907 1750.61" stroke="#DFE4EE" stroke-width="1.75748"/>
<path d="M137.543 -22.2764L139.625 1750.61" stroke="#DFE4EE" stroke-width="1.75748"/>
<path d="M114.687 -22.2764L116.769 1750.61Z" fill="#D5DCE5"/>
<path d="M114.687 -22.2764L116.769 1750.61" stroke="#DFE4EE" stroke-width="1.75748"/>
<path d="M160.4 -22.2764L162.482 1750.61" stroke="#DFE4EE" stroke-width="1.75748"/>
<path d="M1600.35 -22.2764L1602.43 1750.61" stroke="#DFE4EE" stroke-width="1.75748"/>
<path d="M1577.49 -22.2764L1579.57 1750.61Z" fill="#D5DCE5"/>
<path d="M1577.49 -22.2764L1579.57 1750.61" stroke="#DFE4EE" stroke-width="1.75748"/>
<path d="M1623.21 -22.2764L1625.29 1750.61" stroke="#DFE4EE" stroke-width="1.75748"/>
<path d="M1508.92 -22.2764L1511 1750.61" stroke="#DFE4EE" stroke-width="1.75748"/>
<path d="M1486.07 -22.2764L1488.15 1750.61Z" fill="#D5DCE5"/>
<path d="M1486.07 -22.2764L1488.15 1750.61" stroke="#DFE4EE" stroke-width="1.75748"/>
<path d="M1531.78 -22.2764L1533.86 1750.61" stroke="#DFE4EE" stroke-width="1.75748"/>
<path d="M1417.5 -22.2764L1419.58 1750.61" stroke="#DFE4EE" stroke-width="1.75748"/>
<path d="M1394.64 -22.2764L1396.72 1750.61Z" fill="#D5DCE5"/>
<path d="M1394.64 -22.2764L1396.72 1750.61" stroke="#DFE4EE" stroke-width="1.75748"/>
<path d="M1440.35 -22.2764L1442.44 1750.61" stroke="#DFE4EE" stroke-width="1.75748"/>
<path d="M1326.07 -22.2764L1328.15 1750.61" stroke="#DFE4EE" stroke-width="1.75748"/>
<path d="M1303.22 -22.2764L1305.3 1750.61Z" fill="#D5DCE5"/>
<path d="M1303.22 -22.2764L1305.3 1750.61" stroke="#DFE4EE" stroke-width="1.75748"/>
<path d="M1348.93 -22.2764L1351.01 1750.61" stroke="#DFE4EE" stroke-width="1.75748"/>
<path d="M1234.65 -22.2764L1236.73 1750.61" stroke="#DFE4EE" stroke-width="1.75748"/>
<path d="M1211.79 -22.2764L1213.87 1750.61Z" fill="#D5DCE5"/>
<path d="M1211.79 -22.2764L1213.87 1750.61" stroke="#DFE4EE" stroke-width="1.75748"/>
<path d="M1257.5 -22.2764L1259.59 1750.61" stroke="#DFE4EE" stroke-width="1.75748"/>
<path d="M1143.22 -22.2764L1145.3 1750.61" stroke="#DFE4EE" stroke-width="1.75748"/>
<path d="M1120.37 -22.2764L1122.45 1750.61Z" fill="#D5DCE5"/>
<path d="M1120.37 -22.2764L1122.45 1750.61" stroke="#DFE4EE" stroke-width="1.75748"/>
<path d="M1166.08 -22.2764L1168.16 1750.61" stroke="#DFE4EE" stroke-width="1.75748"/>
<path d="M1051.8 -22.2764L1053.88 1750.61" stroke="#DFE4EE" stroke-width="1.75748"/>
<path d="M1028.94 -22.2764L1031.02 1750.61Z" fill="#D5DCE5"/>
<path d="M1028.94 -22.2764L1031.02 1750.61" stroke="#DFE4EE" stroke-width="1.75748"/>
<path d="M1074.65 -22.2764L1076.73 1750.61" stroke="#DFE4EE" stroke-width="1.75748"/>
<path d="M960.371 -22.2764L962.453 1750.61" stroke="#DFE4EE" stroke-width="1.75748"/>
<path d="M937.515 -22.2764L939.597 1750.61Z" fill="#D5DCE5"/>
<path d="M937.515 -22.2764L939.597 1750.61" stroke="#DFE4EE" stroke-width="1.75748"/>
<path d="M983.228 -22.2764L985.309 1750.61" stroke="#DFE4EE" stroke-width="1.75748"/>
<path d="M868.946 -22.2764L871.028 1750.61" stroke="#DFE4EE" stroke-width="1.75748"/>
<path d="M846.089 -22.2764L848.171 1750.61Z" fill="#D5DCE5"/>
<path d="M846.089 -22.2764L848.171 1750.61" stroke="#DFE4EE" stroke-width="1.75748"/>
<path d="M891.803 -22.2764L893.885 1750.61" stroke="#DFE4EE" stroke-width="1.75748"/>
<path d="M1874.62 -22.2764L1876.71 1750.61" stroke="#DFE4EE" stroke-width="1.75748"/>
<path d="M1851.77 -22.2764L1853.85 1750.61Z" fill="#D5DCE5"/>
<path d="M1851.77 -22.2764L1853.85 1750.61" stroke="#DFE4EE" stroke-width="1.75748"/>
<path d="M1897.48 -22.2764L1899.56 1750.61" stroke="#DFE4EE" stroke-width="1.75748"/>
<path d="M1783.2 -22.2764L1785.28 1750.61" stroke="#DFE4EE" stroke-width="1.75748"/>
<path d="M1760.34 -22.2764L1762.43 1750.61Z" fill="#D5DCE5"/>
<path d="M1760.34 -22.2764L1762.43 1750.61" stroke="#DFE4EE" stroke-width="1.75748"/>
<path d="M1806.06 -22.2764L1808.14 1750.61" stroke="#DFE4EE" stroke-width="1.75748"/>
<path d="M1691.77 -22.2764L1693.86 1750.61" stroke="#DFE4EE" stroke-width="1.75748"/>
<path d="M1668.92 -22.2764L1671 1750.61Z" fill="#D5DCE5"/>
<path d="M1668.92 -22.2764L1671 1750.61" stroke="#DFE4EE" stroke-width="1.75748"/>
<path d="M1714.63 -22.2764L1716.71 1750.61" stroke="#DFE4EE" stroke-width="1.75748"/>
</g>
<defs>
<clipPath id="clip0_376_712">
<rect width="1077" height="1921" fill="white" transform="translate(0 1077) rotate(-90)"/>
</clipPath>
</defs>
</svg>
