<svg width="214" height="118" viewBox="0 0 214 118" fill="none" xmlns="http://www.w3.org/2000/svg">
<path d="M0 2.45708C3.22319 2.83149 6.01342 3.1123 8.37067 3.29951C10.7279 3.4399 12.6763 3.55693 14.2157 3.65053C15.9957 3.74412 17.487 3.76752 18.6897 3.72072C19.9405 3.67393 21.6483 3.55693 23.8131 3.36971C25.6412 3.22931 28.0466 3.0421 31.0292 2.80809C34.0119 2.52729 37.7401 2.15287 42.2143 1.68486C42.2624 2.76129 42.2864 3.81432 42.2864 4.84396C42.3344 5.8268 42.3824 6.69261 42.4308 7.44146C42.4789 8.33067 42.5029 9.14972 42.5029 9.89853C42.5029 10.6941 42.4549 11.7004 42.3584 12.9172C42.2624 13.9469 42.0939 15.2573 41.8534 16.8486C41.6609 18.393 41.3483 20.2417 40.9153 22.3945C40.2418 19.8673 39.5922 17.8314 38.9667 16.2869C38.3416 14.6957 37.7641 13.432 37.2351 12.496C36.6578 11.4196 36.0805 10.6005 35.5032 10.0389C34.8778 9.61774 34.1322 9.26671 33.2662 8.98589C32.4965 8.75189 31.5103 8.5647 30.3076 8.42427C29.153 8.28387 27.782 8.30727 26.1944 8.4945C25.9539 14.6723 25.7855 19.68 25.6893 23.5178C25.5931 27.3555 25.5209 30.3508 25.4728 32.5037C25.4247 35.0778 25.4007 36.9263 25.4007 38.0496C25.4488 39.6408 25.7134 41.2086 26.1944 42.7531C26.5793 44.0636 27.2047 45.4209 28.0706 46.8248C28.9366 48.2291 30.1874 49.4692 31.823 50.5457H23.0193C22.2015 50.5457 21.1913 50.5924 19.9886 50.6863C18.9783 50.7797 17.6794 50.8732 16.0919 50.967C14.5525 51.0604 12.7485 51.2243 10.6798 51.4583C11.4014 50.2416 11.9787 49.1418 12.4117 48.1587C12.8447 47.176 13.1814 46.3335 13.422 45.6315C13.7106 44.789 13.9271 44.0403 14.0714 43.385C14.1195 42.4491 14.2398 40.5534 14.4322 37.6988C14.4803 36.5288 14.5284 35.0778 14.5765 33.3461C14.6727 31.6145 14.7689 29.5552 14.8652 27.1683C15.0095 24.7814 15.1298 22.0436 15.226 18.9546C15.3703 15.8189 15.5146 12.2854 15.6589 8.35407C14.793 8.12008 13.9752 8.14348 13.2054 8.42427C12.4357 8.6583 11.7622 8.96249 11.185 9.33691C10.5115 9.80493 9.86202 10.3666 9.23662 11.0218C8.6112 11.8174 7.91365 12.847 7.14394 14.1107C6.47045 15.1871 5.7007 16.6146 4.83479 18.393C3.96884 20.1247 2.98266 22.2775 1.87619 24.8516C1.63565 22.1371 1.46727 19.9141 1.37106 18.1824C1.27484 16.404 1.20268 15.0233 1.15458 14.0405C1.10647 12.8704 1.08242 12.0046 1.08242 11.443C1.08242 10.9282 1.03431 10.2496 0.938092 9.40711C0.84188 8.7051 0.721612 7.79245 0.577288 6.66921C0.432964 5.49918 0.240537 4.09515 0 2.45708ZM44.0181 0.491414C45.1246 0.678623 46.1351 0.819026 47.0491 0.91263C47.9628 0.959433 48.7328 1.00623 49.3583 1.05303C50.0799 1.09984 50.705 1.12324 51.2344 1.12324C51.956 1.07644 52.7976 1.00623 53.7601 0.91263C54.5777 0.819026 55.5638 0.702022 56.7184 0.561619C57.9214 0.421213 59.2925 0.234008 60.8316 0C60.1101 0.374411 59.5086 0.748825 59.0275 1.12324C58.5465 1.45085 58.1619 1.80186 57.873 2.17627C57.5364 2.59749 57.2719 2.9953 57.0794 3.36971C56.8388 3.97812 56.5743 5.24179 56.2858 7.16063C55.9968 8.79869 55.6362 11.2324 55.2032 14.4617C54.8182 17.691 54.3132 22.067 53.6877 27.5895C55.4197 25.9047 57.0553 24.641 58.5949 23.7986C60.1821 22.9094 61.5772 22.2775 62.7802 21.9031C64.1753 21.4819 65.474 21.2713 66.6766 21.2713C68.1681 21.4117 69.6836 21.8797 71.2228 22.6754C72.8104 23.4242 74.2776 24.3134 75.6246 25.3431C77.0197 26.3727 78.2223 27.4725 79.2328 28.6425C80.291 29.8126 81.0369 30.8422 81.4699 31.7315C81.7585 32.3399 81.9026 33.1355 81.9026 34.1183C81.9026 35.0544 81.8065 36.0842 81.614 37.2074C81.4215 38.3306 81.157 39.4772 80.8204 40.6472C80.4834 41.8172 80.1469 42.917 79.8099 43.9468C79.5214 44.9763 79.2568 45.8889 79.0163 46.6847C78.7758 47.4334 78.6313 47.9714 78.5833 48.2992C78.4872 49.0012 78.5353 49.6798 78.7277 50.3351C78.8718 50.8969 79.1608 51.5051 79.5934 52.1603C80.0264 52.7688 80.6759 53.2835 81.542 53.7048C80.8684 53.6113 80.1469 53.5409 79.3773 53.4942C78.6553 53.4007 77.9578 53.3303 77.2843 53.2835C76.5147 53.2368 75.7451 53.2134 74.9751 53.2134H72.3774C71.5598 53.2134 70.6217 53.2368 69.5632 53.2835C68.5047 53.2835 67.3501 53.3069 66.0995 53.3536C66.773 53.1196 67.3501 52.8156 67.8315 52.441C68.3126 52.0198 68.7212 51.6222 69.0581 51.2477C69.4427 50.8264 69.7797 50.3818 70.0682 49.9138C70.2607 49.5393 70.5013 48.8373 70.7898 47.8079C71.0787 46.7314 71.3433 45.5147 71.5838 44.1575C71.8243 42.7531 71.9928 41.2791 72.0888 39.7346C72.2333 38.1901 72.2573 36.7157 72.1609 35.3118C72.1129 33.8609 71.8964 32.5739 71.5114 31.4506C71.1748 30.3274 70.6457 29.5084 69.9242 28.9936C67.7591 27.4023 65.7869 26.6301 64.0068 26.6769C62.2748 26.6769 60.6151 27.3555 59.0275 28.7128C58.4504 29.2276 57.897 29.7424 57.3679 30.2572C56.8869 30.7252 56.3578 31.2868 55.7803 31.9421C55.2032 32.5505 54.6741 33.1823 54.1927 33.8375C54.1927 34.5396 54.2171 35.3118 54.2652 36.1543C54.3132 36.9968 54.3612 37.8156 54.4092 38.6114C54.4576 39.5006 54.5297 40.3898 54.6258 41.2791C54.7222 42.6363 54.8663 43.9702 55.0588 45.2803C55.2032 46.4039 55.3957 47.644 55.6362 49.0012C55.8768 50.3117 56.1893 51.505 56.5743 52.5816C55.9488 52.4881 55.2993 52.4644 54.6258 52.5115C53.9522 52.5115 53.3031 52.5115 52.6776 52.5115C51.956 52.5582 51.2585 52.5816 50.5849 52.5816C49.9594 52.6283 49.3099 52.6987 48.6364 52.7922C48.0593 52.8856 47.4338 52.9795 46.7602 53.0729C46.0867 53.1196 45.4375 53.2134 44.812 53.3536C45.3891 52.2775 45.8702 51.2243 46.2552 50.1945C46.6402 49.1184 46.9527 48.1821 47.1932 47.3866C47.4818 46.4507 47.7223 45.5381 47.9148 44.6488C48.0593 43.9468 48.1553 42.613 48.2034 40.6472C48.2998 38.6347 48.3718 36.3415 48.4199 33.7673C48.4683 31.1464 48.4923 28.3852 48.4923 25.4835C48.4923 22.5818 48.4683 19.8205 48.4199 17.1996C48.3718 14.5787 48.2758 12.2854 48.1313 10.3198C48.0352 8.35407 47.9148 6.99684 47.7707 6.24803C47.5782 5.49918 47.3137 4.75036 46.9767 4.00155C46.6882 3.34631 46.3032 2.71449 45.8222 2.10607C45.3411 1.45085 44.74 0.91263 44.0181 0.491414ZM104.273 42.4023C105.62 42.4023 106.871 42.2618 108.025 41.9811C108.987 41.7471 109.901 41.3725 110.767 40.8578C111.681 40.296 112.282 39.4772 112.571 38.4007C113.533 38.588 114.351 38.7515 115.025 38.8921C115.698 38.9855 116.275 39.0793 116.756 39.1728C117.286 39.3133 117.743 39.4068 118.127 39.4539C118.512 39.5473 118.969 39.6408 119.499 39.7346C119.98 39.8281 120.557 39.9452 121.231 40.0854C121.952 40.1792 122.794 40.3194 123.756 40.5067C123.035 40.4132 122.289 40.4833 121.519 40.7173C120.798 40.9513 120.1 41.2086 119.426 41.4897C118.657 41.8172 117.935 42.2151 117.262 42.6831C116.829 42.9638 116.324 43.385 115.746 43.9468C115.217 44.5083 114.447 45.0463 113.437 45.5614C112.427 46.0761 111.08 46.5207 109.396 46.8953C107.76 47.2227 105.644 47.3399 103.046 47.2461C99.9187 47.1526 97.297 46.6142 95.1804 45.6315C93.0637 44.6017 91.3557 43.3617 90.057 41.911C88.758 40.4132 87.8199 38.7986 87.2428 37.0669C86.6653 35.3352 86.3528 33.7205 86.3047 32.2229C86.2563 30.7252 86.7133 29.1574 87.6754 27.5193C88.6379 25.8812 89.9846 24.3836 91.7166 23.0264C93.4967 21.6691 95.6374 20.5693 98.139 19.7269C100.641 18.8376 103.382 18.393 106.365 18.393C108.097 18.393 109.685 18.6036 111.128 19.0248C112.619 19.3993 113.966 19.9141 115.169 20.5693C116.42 21.2245 117.502 21.9734 118.416 22.8158C119.33 23.6114 120.1 24.4304 120.725 25.2728C121.351 26.1621 121.88 27.0981 122.313 28.0809C122.698 28.9234 123.01 29.8828 123.251 30.9593C123.492 32.0357 123.564 33.1355 123.467 34.2587C119.811 34.3524 116.853 34.4226 114.592 34.4694C112.379 34.5162 110.647 34.5396 109.396 34.5396H106.149H103.695C102.829 34.5396 101.699 34.563 100.304 34.6098C98.9086 34.6566 97.201 34.7268 95.1804 34.8204C95.4209 36.6923 96.0224 38.1434 96.9845 39.1728C97.9946 40.1559 99.0531 40.9046 100.16 41.4193C101.41 41.9811 102.781 42.3085 104.273 42.4023ZM97.7781 29.7658C99.3176 29.8594 100.592 29.9296 101.603 29.9764C102.661 30.0232 103.527 30.07 104.2 30.1168C104.922 30.1636 105.5 30.187 105.932 30.187H107.736C108.939 30.187 111.176 30.1168 114.447 29.9764C114.303 27.9171 113.846 26.3493 113.076 25.2728C112.355 24.1964 111.585 23.4008 110.767 22.886C109.805 22.3243 108.747 21.9968 107.592 21.9031C104.465 21.9499 102.132 22.5818 100.592 23.7986C99.1011 25.0154 98.1631 27.0045 97.7781 29.7658ZM87.6034 63.8448C88.6619 63.283 89.8645 62.7917 91.2116 62.3704C92.5586 61.9025 93.9537 61.5516 95.3969 61.3177C96.84 61.0366 98.2831 60.873 99.7266 60.8259C101.218 60.7792 102.613 60.8964 103.912 61.1771C107.712 61.9729 110.911 63.4937 113.509 65.7402C116.107 67.9866 118.103 70.6076 119.499 73.6028C120.942 76.5984 121.784 79.8275 122.024 83.2907C122.313 86.7075 122.024 90.0068 121.158 93.1896C120.87 94.1255 120.389 95.202 119.715 96.4187C119.138 97.4485 118.344 98.7119 117.334 100.21C116.324 101.66 115.001 103.275 113.365 105.053C113.75 105.896 114.135 106.575 114.52 107.089C114.953 107.558 115.361 107.908 115.746 108.142C116.179 108.423 116.588 108.61 116.973 108.704C117.358 108.751 117.815 108.774 118.344 108.774C118.777 108.774 119.282 108.751 119.859 108.704C120.485 108.61 121.158 108.47 121.88 108.283L110.623 117.409C110.478 116.66 110.31 116.005 110.118 115.444C109.973 114.929 109.853 114.484 109.757 114.11L109.324 113.057C109.131 112.823 108.939 112.519 108.747 112.144C108.554 111.863 108.338 111.512 108.097 111.091C107.857 110.67 107.544 110.202 107.159 109.687C104.128 110.81 101.362 111.536 98.8606 111.863C96.407 112.191 94.1702 112.214 92.1496 111.933C90.129 111.699 88.325 111.255 86.7374 110.6C85.1498 109.898 83.7547 109.102 82.5521 108.213C79.7619 106.107 77.5732 103.345 75.9856 99.929C74.2055 95.2488 73.3879 90.9665 73.532 87.0817C73.7245 83.1505 74.4941 79.6636 75.8411 76.6217C77.1882 73.5327 78.9202 70.9117 81.0369 68.7591C83.2016 66.606 85.3907 64.9681 87.6034 63.8448ZM98.2831 99.5077C97.5616 99.3205 96.888 99.2504 96.2629 99.2971C95.7334 99.3438 95.2044 99.5077 94.6753 99.7885C94.1459 100.069 93.7612 100.584 93.5207 101.333C94.1459 101.941 94.7233 102.456 95.2524 102.877C95.8299 103.252 96.3109 103.556 96.6955 103.79C97.177 104.071 97.6096 104.305 97.9946 104.492C98.6681 104.726 99.3416 104.913 100.015 105.053C100.592 105.147 101.218 105.194 101.891 105.194C102.613 105.147 103.286 104.96 103.912 104.633C103.431 103.65 102.853 102.83 102.18 102.175C101.555 101.473 100.953 100.935 100.376 100.561C99.7026 100.093 99.0047 99.7417 98.2831 99.5077ZM90.6341 96.9802C91.4521 95.7635 92.3421 94.8976 93.3042 94.3829C94.2663 93.8682 95.1804 93.4936 96.0464 93.2597C97.0565 93.0724 98.091 93.0023 99.1491 93.049C100.16 93.283 101.17 93.6809 102.18 94.2424C103.046 94.7574 103.96 95.4828 104.922 96.4187C105.884 97.308 106.774 98.5247 107.592 100.069C108.362 98.9459 108.939 97.776 109.324 96.5593C109.709 95.3422 109.997 94.2424 110.19 93.2597C110.382 92.0897 110.478 90.9431 110.478 89.8199C110.382 88.0881 110.19 86.2629 109.901 84.3438C109.612 82.4252 109.18 80.5295 108.602 78.6576C108.073 76.7856 107.4 75.0071 106.582 73.3221C105.764 71.6374 104.778 70.1864 103.623 68.9697C102.517 67.7526 101.218 66.84 99.7266 66.2319C98.2831 65.6233 96.6475 65.4594 94.8194 65.7402C92.7992 66.0212 91.1392 66.8167 89.8405 68.1272C88.5895 69.4377 87.6034 70.9822 86.8818 72.7607C86.2083 74.4921 85.7753 76.3644 85.5828 78.3768C85.4387 80.3422 85.4627 82.1207 85.6552 83.712C85.7993 85.0225 86.0882 86.4031 86.5209 87.8541C86.9058 89.0708 87.4109 90.4747 88.0364 92.0663C88.6619 93.6575 89.5276 95.2955 90.6341 96.9802ZM125.849 79.6403C127.099 79.8743 128.182 80.0615 129.096 80.2021C130.058 80.2955 130.876 80.3893 131.549 80.4828C132.319 80.5762 132.993 80.6467 133.57 80.6934C134.147 80.7401 134.821 80.7869 135.591 80.834C136.89 80.8807 138.717 80.8807 141.075 80.834C139.68 80.7401 138.573 81.0913 137.755 81.8867C136.986 82.6358 136.408 83.5013 136.024 84.4844C135.542 85.6543 135.278 87.0116 135.23 88.5561C135.133 90.6153 135.182 92.4872 135.374 94.1723C135.615 95.8102 136.024 97.2142 136.601 98.3845C137.226 99.5077 138.044 100.35 139.054 100.912C140.064 101.426 141.363 101.567 142.951 101.333C144.539 101.099 145.741 100.561 146.559 99.7184C147.425 98.8291 148.05 97.7526 148.435 96.4888C148.82 95.1783 149.036 93.7043 149.084 92.0663C149.181 90.428 149.253 88.72 149.301 86.9415C149.301 85.163 149.277 83.8992 149.229 83.1505C149.229 82.3547 149.205 81.84 149.157 81.606C149.108 81.372 149.036 81.2786 148.94 81.3253C148.844 81.3253 148.724 81.2081 148.579 80.9741C148.483 80.7869 148.339 80.6 148.146 80.4127C148.002 80.2254 147.81 80.0148 147.569 79.7808C147.329 79.5001 147.064 79.219 146.775 78.9383C148.026 78.985 149.133 79.0321 150.095 79.0788C151.105 79.0788 151.947 79.1022 152.621 79.1489C153.39 79.1956 154.064 79.2424 154.641 79.2895C155.17 79.3362 155.868 79.4063 156.733 79.5001C157.455 79.5935 158.393 79.687 159.548 79.7808C160.703 79.8743 162.074 80.0148 163.661 80.2021C162.555 80.4361 161.665 80.7869 160.991 81.2548C160.318 81.7232 159.789 82.1912 159.404 82.6592C158.971 83.1739 158.658 83.7353 158.466 84.3438C158.321 85.1396 158.321 86.3563 158.466 87.9943C158.562 89.4453 158.802 91.4344 159.187 93.9616C159.572 96.4888 160.173 99.8118 160.991 103.93L155.29 107.23L154.136 97.8931C152.741 100.186 151.25 101.965 149.662 103.228C148.122 104.445 146.679 105.335 145.332 105.896C143.745 106.551 142.205 106.926 140.714 107.019C138.742 107.019 137.034 106.902 135.591 106.668C134.195 106.387 132.993 106.037 131.982 105.615C130.972 105.194 130.154 104.726 129.529 104.211C128.952 103.65 128.519 103.088 128.23 102.526C127.557 101.356 127.196 99.8585 127.148 98.0333C127.099 96.1614 127.172 94.3128 127.364 92.4872C127.557 90.6153 127.773 88.9072 128.014 87.3628C128.254 85.8183 128.326 84.7651 128.23 84.2037C128.134 83.7824 127.99 83.3144 127.797 82.7994C127.605 82.3781 127.364 81.9101 127.075 81.3954C126.787 80.834 126.378 80.2488 125.849 79.6403ZM164.743 80.5529L178.021 80.6934C177.251 83.5484 176.674 85.9818 176.289 87.9943C175.953 90.0068 175.736 91.6918 175.64 93.049C175.448 94.5935 175.399 95.904 175.496 96.9802C175.64 97.9632 175.88 99.016 176.217 100.14C176.506 101.076 176.939 102.152 177.516 103.369C178.093 104.585 178.863 105.803 179.825 107.019C179.248 106.832 178.622 106.692 177.949 106.598C177.275 106.505 176.65 106.434 176.073 106.387C175.399 106.341 174.726 106.341 174.052 106.387C173.379 106.434 172.633 106.505 171.815 106.598C171.142 106.692 170.324 106.809 169.362 106.949C168.4 107.089 167.39 107.277 166.331 107.511C167.053 105.405 167.606 103.579 167.991 102.035C168.424 100.49 168.736 99.2033 168.929 98.1739C169.121 96.9568 169.242 95.9741 169.29 95.2254C169.29 94.2891 169.29 93.2363 169.29 92.0663C169.29 90.8493 169.29 89.6793 169.29 88.5561C169.29 87.4328 169.266 86.4501 169.218 85.6076C169.169 84.7184 169.073 84.1566 168.929 83.9226L168.207 83.2206C167.919 82.9866 167.486 82.6592 166.909 82.2379C166.379 81.7699 165.658 81.2081 164.743 80.5529ZM169.867 69.7418C170.877 69.227 171.887 69.0865 172.898 69.3205C173.956 69.5545 174.774 69.9991 175.351 70.6544C175.929 71.3096 176.121 72.082 175.929 72.9713C175.784 73.8605 175.015 74.7261 173.619 75.5686C172.224 76.3644 170.997 76.6451 169.939 76.4111C168.881 76.1771 168.135 75.6858 167.702 74.9367C167.269 74.188 167.197 73.3221 167.486 72.3394C167.774 71.3096 168.568 70.4437 169.867 69.7418ZM181.701 71.2863C183.914 71.4735 185.863 71.6141 187.546 71.7075C189.278 71.7542 190.722 71.8243 191.876 71.9181C193.223 72.0116 194.402 72.082 195.412 72.1288C196.47 72.1755 197.817 72.1755 199.453 72.1288C200.848 72.1288 202.628 72.1054 204.793 72.0583C207.006 71.9649 209.7 71.8243 212.875 71.6374L212.298 81.3954C210.902 82.7526 209.652 84.0164 208.545 85.1864C207.487 86.3563 206.549 87.3627 205.731 88.2049C204.817 89.188 203.999 90.0772 203.277 90.8726C202.556 91.7152 201.738 92.7212 200.824 93.8915C200.006 94.921 199.02 96.1847 197.866 97.6825C196.711 99.1332 195.388 100.842 193.896 102.807C196.543 102.667 198.707 102.526 200.391 102.386C202.075 102.199 203.398 102.035 204.36 101.894C205.515 101.707 206.356 101.567 206.886 101.473C207.367 101.286 207.92 100.888 208.545 100.28C209.074 99.7651 209.724 98.9927 210.493 97.9632C211.263 96.9334 212.129 95.5295 213.092 93.751C213.092 95.202 213.092 96.4421 213.092 97.4719C213.14 98.4546 213.164 99.2737 213.164 99.929V101.824V103.439C213.164 103.954 213.164 104.585 213.164 105.335C213.212 106.083 213.26 106.926 213.308 107.862C211.432 107.628 209.724 107.464 208.184 107.37C206.645 107.23 205.322 107.136 204.216 107.089C202.917 107.043 201.738 107.043 200.68 107.089C199.621 107.183 198.298 107.277 196.711 107.37C195.364 107.464 193.704 107.558 191.732 107.651C189.76 107.745 187.426 107.862 184.732 108.002L183.145 100.561C184.011 100.186 185.045 99.4606 186.247 98.3845C187.45 97.308 188.605 96.2081 189.711 95.0849C190.962 93.7744 192.285 92.347 193.68 90.8026C195.027 89.2581 196.35 87.7136 197.649 86.1691C198.755 84.8586 199.91 83.5013 201.113 82.0974C202.363 80.6934 203.446 79.453 204.36 78.3768C201.762 78.4703 199.621 78.6576 197.938 78.9383C196.254 79.1723 194.931 79.4063 193.969 79.6403C192.814 79.9213 191.948 80.2488 191.371 80.6233C190.842 81.0442 190.192 81.6761 189.423 82.5186C188.749 83.2206 187.931 84.1799 186.969 85.397C186.007 86.567 184.9 88.0881 183.65 89.96C183.65 88.4155 183.626 87.0349 183.578 85.8182C183.53 84.5545 183.481 83.5013 183.433 82.6592C183.337 81.6761 183.265 80.8102 183.217 80.0615C183.121 79.3128 183 78.4937 182.856 77.6044C182.76 76.809 182.591 75.8964 182.351 74.8666C182.159 73.7901 181.942 72.5968 181.701 71.2863Z" fill="black"/>
</svg>
