<svg width="194" height="105" viewBox="0 0 194 105" fill="none" xmlns="http://www.w3.org/2000/svg">
<path d="M0 2.19739C2.93144 2.53223 5.4691 2.78336 7.61298 2.95078C9.75687 3.07633 11.5288 3.18099 12.9289 3.2647C14.5478 3.3484 15.9041 3.36933 16.998 3.32748C18.1355 3.28562 19.6888 3.18099 21.6576 3.01356C23.3202 2.888 25.5079 2.72058 28.2205 2.5113C30.9332 2.26017 34.324 1.92533 38.3932 1.50678C38.4369 2.46945 38.4587 3.41118 38.4587 4.332C38.5024 5.21096 38.5461 5.98526 38.5901 6.65497C38.6338 7.45019 38.6556 8.18268 38.6556 8.85235C38.6556 9.56387 38.612 10.4638 38.5243 11.552C38.4369 12.4728 38.2837 13.6448 38.0649 15.0678C37.8899 16.449 37.6056 18.1023 37.2118 20.0276C36.5992 17.7675 36.0085 15.9468 35.4396 14.5655C34.871 13.1425 34.3458 12.0124 33.8647 11.1753C33.3396 10.2126 32.8146 9.48016 32.2896 8.9779C31.7208 8.60123 31.0426 8.28731 30.255 8.03616C29.555 7.8269 28.6581 7.65949 27.5643 7.5339C26.5142 7.40834 25.2672 7.42927 23.8234 7.59671C23.6046 13.1215 23.4515 17.6 23.364 21.0322C23.2765 24.4643 23.2109 27.143 23.1671 29.0683C23.1234 31.3704 23.1015 33.0235 23.1015 34.0281C23.1452 35.4511 23.3859 36.8533 23.8234 38.2345C24.1734 39.4065 24.7422 40.6203 25.5297 41.8759C26.3173 43.1318 27.4549 44.2408 28.9425 45.2035H20.9357C20.1919 45.2035 19.2731 45.2453 18.1793 45.3292C17.2605 45.4127 16.0791 45.4963 14.6353 45.5802C13.2352 45.6638 11.5945 45.8104 9.71312 46.0196C10.3694 44.9315 10.8944 43.9479 11.2882 43.0688C11.682 42.1899 11.9883 41.4365 12.207 40.8087C12.4695 40.0552 12.6664 39.3856 12.7977 38.7996C12.8414 37.9626 12.9508 36.2673 13.1258 33.7143C13.1696 32.668 13.2134 31.3704 13.2571 29.8217C13.3446 28.2731 13.4321 26.4315 13.5196 24.2969C13.6509 22.1622 13.7603 19.7137 13.8478 16.9513C13.979 14.147 14.1103 10.9869 14.2415 7.47112C13.454 7.26186 12.7102 7.28278 12.0101 7.5339C11.3101 7.74319 10.6976 8.01523 10.1725 8.35008C9.55999 8.76864 8.96933 9.2709 8.40055 9.85687C7.83173 10.5684 7.19733 11.4892 6.49729 12.6193C5.88476 13.582 5.18469 14.8585 4.39716 16.449C3.60959 17.9977 2.71267 19.923 1.70636 22.225C1.48759 19.7975 1.33446 17.8093 1.24696 16.2607C1.15945 14.6702 1.09382 13.4355 1.05007 12.5565C1.00631 11.5101 0.984438 10.7358 0.984438 10.2336C0.984438 9.77316 0.940685 9.16627 0.853178 8.41286C0.765675 7.78505 0.656293 6.96886 0.525033 5.96434C0.393773 4.91796 0.218764 3.66233 0 2.19739ZM40.0337 0.439476C41.0401 0.606899 41.9591 0.732462 42.7904 0.816174C43.6214 0.858029 44.3216 0.899885 44.8905 0.941737C45.5468 0.983593 46.1153 1.00452 46.5968 1.00452C47.2531 0.962666 48.0185 0.899885 48.8939 0.816174C49.6375 0.732462 50.5343 0.627825 51.5844 0.502261C52.6785 0.376695 53.9255 0.209275 55.3253 0C54.6691 0.334839 54.122 0.669681 53.6845 1.00452C53.247 1.29751 52.8972 1.61142 52.6345 1.94626C52.3284 2.32296 52.0878 2.67872 51.9127 3.01356C51.6939 3.55767 51.4534 4.68778 51.1909 6.40382C50.9282 7.86875 50.6002 10.0452 50.2064 12.9332C49.8562 15.8212 49.3969 19.7347 48.828 24.6736C50.4033 23.1668 51.8909 22.0367 53.2911 21.2833C54.7346 20.488 56.0034 19.923 57.0975 19.5882C58.3663 19.2115 59.5474 19.0231 60.6412 19.0231C61.9977 19.1487 63.3761 19.5672 64.7759 20.2788C66.2198 20.9485 67.5542 21.7437 68.7793 22.6645C70.0481 23.5853 71.1419 24.5689 72.0609 25.6153C73.0232 26.6617 73.7017 27.5825 74.0955 28.3777C74.3579 28.9218 74.489 29.6334 74.489 30.5123C74.489 31.3494 74.4016 32.2704 74.2265 33.2749C74.0515 34.2794 73.8109 35.3048 73.5048 36.3512C73.1983 37.3975 72.8922 38.3811 72.5857 39.302C72.3233 40.2227 72.0827 41.0388 71.864 41.7505C71.6452 42.4201 71.5138 42.9013 71.4701 43.1944C71.3828 43.8222 71.4265 44.4291 71.6015 45.0151C71.7326 45.5175 71.9953 46.0614 72.3888 46.6474C72.7826 47.1916 73.3734 47.6519 74.161 48.0287C73.5484 47.9451 72.8922 47.8821 72.1923 47.8403C71.5357 47.7567 70.9013 47.6937 70.2887 47.6519C69.5888 47.6102 68.8888 47.5893 68.1886 47.5893H65.826C65.0824 47.5893 64.2292 47.6102 63.2665 47.6519C62.3038 47.6519 61.2538 47.6728 60.1163 47.7146C60.7289 47.5054 61.2538 47.2334 61.6916 46.8985C62.1291 46.5217 62.5007 46.1662 62.8072 45.8313C63.157 45.4545 63.4634 45.0569 63.7259 44.6384C63.9009 44.3034 64.1197 43.6756 64.3821 42.755C64.6449 41.7923 64.8855 40.7042 65.1042 39.4904C65.323 38.2345 65.4762 36.9163 65.5636 35.535C65.6949 34.1538 65.7168 32.8352 65.6291 31.5796C65.5854 30.2821 65.3885 29.1311 65.0384 28.1266C64.7322 27.1221 64.2511 26.3896 63.5948 25.9292C61.6257 24.5061 59.832 23.8155 58.2131 23.8574C56.6378 23.8574 55.1284 24.4643 53.6845 25.6781C53.1597 26.1385 52.6563 26.5989 52.1751 27.0593C51.7376 27.4778 51.2564 27.9801 50.7312 28.5661C50.2064 29.1102 49.7252 29.6752 49.2874 30.2612C49.2874 30.889 49.3095 31.5796 49.3532 32.3331C49.3969 33.0865 49.4406 33.8188 49.4843 34.5305C49.5283 35.3257 49.5938 36.121 49.6812 36.9163C49.7689 38.13 49.8999 39.3229 50.075 40.4946C50.2064 41.4995 50.3814 42.6084 50.6002 43.8222C50.8189 44.9942 51.1032 46.0614 51.4534 47.0242C50.8845 46.9406 50.2937 46.9194 49.6812 46.9615C49.0686 46.9615 48.4782 46.9615 47.9093 46.9615C47.2531 47.0033 46.6187 47.0242 46.0061 47.0242C45.4372 47.0659 44.8465 47.129 44.2339 47.2125C43.7091 47.2961 43.1402 47.38 42.5276 47.4636C41.9151 47.5054 41.3247 47.5893 40.7558 47.7146C41.2806 46.7522 41.7181 45.8104 42.0683 44.8894C42.4184 43.927 42.7027 43.0897 42.9214 42.3783C43.1839 41.5412 43.4026 40.7251 43.5777 39.9298C43.7091 39.302 43.7964 38.1092 43.8401 36.3512C43.9278 34.5514 43.9933 32.5005 44.037 30.1984C44.081 27.8545 44.1029 25.3851 44.1029 22.7901C44.1029 20.1951 44.081 17.7256 44.037 15.3817C43.9933 13.0378 43.906 10.9869 43.7746 9.22905C43.6872 7.47112 43.5777 6.25734 43.4466 5.58767C43.2716 4.91796 43.031 4.24829 42.7245 3.57862C42.4621 2.99264 42.112 2.42759 41.6745 1.88348C41.237 1.29751 40.6903 0.816174 40.0337 0.439476ZM94.8341 37.9208C96.0592 37.9208 97.1969 37.7951 98.247 37.5441C99.122 37.3348 99.9533 36.9998 100.741 36.5395C101.572 36.0371 102.119 35.3048 102.381 34.3421C103.256 34.5096 104 34.6559 104.613 34.7815C105.226 34.8651 105.75 34.949 106.188 35.0326C106.669 35.1583 107.085 35.2418 107.435 35.284C107.785 35.3675 108.201 35.4511 108.682 35.535C109.119 35.6186 109.645 35.7234 110.257 35.8487C110.913 35.9326 111.679 36.058 112.554 36.2255C111.898 36.1419 111.219 36.2046 110.52 36.4138C109.863 36.6231 109.229 36.8533 108.616 37.1046C107.916 37.3975 107.26 37.7533 106.648 38.1718C106.254 38.4229 105.794 38.7996 105.269 39.302C104.788 39.8041 104.088 40.2853 103.169 40.746C102.25 41.2063 101.025 41.6039 99.494 41.9389C98.0061 42.2317 96.081 42.3365 93.7185 42.2526C90.8744 42.169 88.49 41.6875 86.5649 40.8087C84.6398 39.8877 83.0864 38.7787 81.9053 37.4814C80.7238 36.1419 79.8707 34.698 79.3458 33.1492C78.8206 31.6006 78.5363 30.1566 78.4927 28.8172C78.4486 27.4778 78.8643 26.0757 79.7393 24.6108C80.6146 23.1458 81.8394 21.8065 83.4147 20.5927C85.0336 19.3789 86.9806 18.3953 89.2558 17.6419C91.531 16.8467 94.0246 16.449 96.7373 16.449C98.3125 16.449 99.7564 16.6374 101.069 17.0141C102.425 17.3489 103.65 17.8093 104.744 18.3953C105.882 18.9813 106.866 19.651 107.698 20.4043C108.529 21.1159 109.229 21.8483 109.798 22.6017C110.366 23.397 110.848 24.2341 111.241 25.113C111.591 25.8664 111.876 26.7245 112.095 27.6871C112.314 28.6498 112.379 29.6334 112.291 30.6379C108.966 30.7216 106.276 30.7844 104.219 30.8263C102.206 30.8681 100.631 30.889 99.494 30.889H96.5404H94.3092C93.5215 30.889 92.4933 30.91 91.2245 30.9518C89.9557 30.9937 88.4026 31.0564 86.5649 31.1402C86.7836 32.8143 87.3307 34.112 88.2057 35.0326C89.1244 35.9117 90.0871 36.5813 91.0935 37.0416C92.2309 37.544 93.4779 37.8369 94.8341 37.9208ZM88.9275 26.6198C90.3277 26.7035 91.4869 26.7663 92.406 26.8082C93.3683 26.85 94.156 26.8919 94.7685 26.9337C95.4248 26.9756 95.95 26.9965 96.3435 26.9965H97.9843C99.0783 26.9965 101.113 26.9337 104.088 26.8082C103.957 24.9665 103.541 23.5644 102.841 22.6017C102.185 21.6391 101.485 20.9275 100.741 20.4671C99.8656 19.9649 98.9033 19.6719 97.8532 19.5882C95.0091 19.63 92.8871 20.1951 91.4869 21.2833C90.1308 22.3715 89.2776 24.1504 88.9275 26.6198ZM79.6738 57.097C80.6365 56.5946 81.7302 56.1552 82.9554 55.7784C84.1805 55.3599 85.4493 55.0462 86.7618 54.8369C88.0743 54.5856 89.3868 54.4393 90.6996 54.3972C92.0558 54.3554 93.3246 54.4602 94.5061 54.7112C97.9624 55.4229 100.872 56.783 103.235 58.792C105.597 60.801 107.413 63.145 108.682 65.8237C109.995 68.5026 110.76 71.3905 110.979 74.4876C111.241 77.5433 110.979 80.4938 110.191 83.3403C109.929 84.1773 109.491 85.14 108.879 86.2281C108.354 87.1491 107.632 88.279 106.713 89.6184C105.794 90.9158 104.591 92.3597 103.104 93.9503C103.453 94.7037 103.803 95.3106 104.154 95.7709C104.547 96.1898 104.919 96.5035 105.269 96.7128C105.663 96.9638 106.035 97.1313 106.385 97.2152C106.735 97.257 107.151 97.2779 107.632 97.2779C108.026 97.2779 108.485 97.257 109.01 97.2152C109.579 97.1313 110.191 97.0059 110.848 96.8385L100.61 105C100.478 104.33 100.325 103.744 100.15 103.242C100.019 102.782 99.9093 102.384 99.822 102.049L99.4281 101.108C99.2531 100.898 99.0783 100.626 98.9033 100.291C98.7282 100.04 98.5313 99.7263 98.3125 99.3496C98.0938 98.9729 97.8092 98.5543 97.4594 98.094C94.703 99.0986 92.1872 99.7472 89.912 100.04C87.6805 100.333 85.6462 100.354 83.8085 100.103C81.9708 99.8938 80.33 99.4962 78.8861 98.9102C77.4423 98.2824 76.1734 97.5707 75.0797 96.7755C72.5421 94.8921 70.5515 92.4227 69.1076 89.3674C67.4886 85.1818 66.745 81.3521 66.8761 77.8779C67.0511 74.3623 67.7511 71.2439 68.9762 68.5235C70.2013 65.761 71.7766 63.417 73.7017 61.4918C75.6704 59.5664 77.6613 58.1015 79.6738 57.097ZM89.3868 88.9907C88.7306 88.8232 88.118 88.7605 87.5494 88.8023C87.0679 88.8441 86.5867 88.9907 86.1056 89.2417C85.624 89.4928 85.2742 89.9531 85.0555 90.623C85.624 91.1672 86.1492 91.6275 86.6304 92.0042C87.1556 92.3388 87.5931 92.6111 87.9429 92.8204C88.3808 93.0714 88.7742 93.2807 89.1244 93.4482C89.7369 93.6574 90.3495 93.8249 90.9621 93.9503C91.4869 94.0342 92.0558 94.0759 92.6684 94.0759C93.3246 94.0342 93.9372 93.8667 94.5061 93.5738C94.0686 92.6947 93.5434 91.9621 92.9308 91.3764C92.3623 90.7483 91.8152 90.2671 91.29 89.9322C90.6778 89.5137 90.0431 89.1999 89.3868 88.9907ZM82.4302 86.7302C83.1741 85.6421 83.9836 84.8678 84.8586 84.4075C85.7336 83.9472 86.5649 83.6122 87.3525 83.4029C88.2712 83.2355 89.2121 83.1728 90.1744 83.2146C91.0935 83.4238 92.0121 83.7797 92.9308 84.2818C93.7185 84.7424 94.5498 85.3911 95.4248 86.2281C96.2998 87.0234 97.1092 88.1115 97.8532 89.4928C98.5531 88.4882 99.0783 87.4419 99.4281 86.3538C99.7783 85.2654 100.041 84.2818 100.216 83.4029C100.391 82.3566 100.478 81.3312 100.478 80.3267C100.391 78.778 100.216 77.1457 99.9533 75.4295C99.6906 73.7136 99.2971 72.0183 98.7719 70.3442C98.2907 68.6701 97.6781 67.0796 96.9342 65.5726C96.1906 64.066 95.2937 62.7683 94.2433 61.6802C93.2373 60.5918 92.0558 59.7756 90.6996 59.2317C89.3868 58.6875 87.8992 58.541 86.2366 58.792C84.3992 59.0434 82.8895 59.7547 81.7084 60.9267C80.5706 62.0987 79.6738 63.48 79.0175 65.0705C78.405 66.6189 78.0111 68.2933 77.8361 70.0931C77.705 71.8508 77.7269 73.4413 77.9019 74.8644C78.033 76.0363 78.2957 77.271 78.6892 78.5687C79.0394 79.6568 79.4987 80.9124 80.0676 82.3357C80.6365 83.7588 81.4238 85.2236 82.4302 86.7302ZM114.457 71.223C115.595 71.4323 116.579 71.5997 117.411 71.7254C118.286 71.809 119.03 71.8929 119.642 71.9765C120.342 72.06 120.955 72.1231 121.48 72.1648C122.005 72.2066 122.617 72.2484 123.317 72.2905C124.499 72.3323 126.161 72.3323 128.305 72.2905C127.036 72.2066 126.03 72.5207 125.286 73.232C124.586 73.9019 124.061 74.676 123.711 75.5551C123.274 76.6014 123.033 77.8152 122.989 79.1965C122.902 81.0381 122.945 82.7122 123.12 84.2191C123.339 85.6839 123.711 86.9395 124.236 87.9861C124.805 88.9907 125.549 89.7438 126.467 90.2462C127.386 90.7065 128.568 90.8322 130.011 90.623C131.455 90.4137 132.549 89.9322 133.293 89.179C134.08 88.3838 134.649 87.421 134.999 86.2908C135.349 85.1188 135.546 83.8006 135.59 82.3357C135.677 80.8706 135.743 79.3431 135.787 77.7526C135.787 76.162 135.765 75.0318 135.721 74.3623C135.721 73.6506 135.699 73.1903 135.656 72.981C135.612 72.7717 135.546 72.6882 135.459 72.7299C135.371 72.7299 135.262 72.6252 135.13 72.4159C135.043 72.2484 134.912 72.0813 134.737 71.9138C134.606 71.7463 134.43 71.5579 134.212 71.3487C133.993 71.0976 133.752 70.8463 133.49 70.5952C134.627 70.637 135.634 70.6791 136.509 70.7209C137.427 70.7209 138.193 70.7418 138.806 70.7836C139.506 70.8254 140.118 70.8672 140.643 70.9093C141.125 70.9511 141.759 71.0137 142.546 71.0976C143.203 71.1812 144.056 71.2648 145.106 71.3487C146.156 71.4323 147.403 71.5579 148.847 71.7254C147.841 71.9347 147.031 72.2484 146.419 72.6669C145.806 73.0858 145.325 73.5043 144.975 73.9228C144.581 74.3831 144.297 74.8852 144.122 75.4295C143.99 76.1411 143.99 77.2292 144.122 78.6941C144.209 79.9917 144.428 81.7706 144.778 84.0307C145.128 86.2908 145.675 89.2626 146.419 92.9457L141.234 95.8966L140.184 87.5467C138.915 89.5975 137.559 91.1881 136.115 92.318C134.715 93.4064 133.402 94.2016 132.177 94.7037C130.733 95.2897 129.333 95.6247 127.977 95.7083C126.183 95.7083 124.63 95.6038 123.317 95.3945C122.048 95.1431 120.955 94.8294 120.036 94.4527C119.117 94.0759 118.373 93.6574 117.804 93.1971C117.279 92.6947 116.885 92.1926 116.623 91.6902C116.01 90.6439 115.682 89.3044 115.638 87.6721C115.595 85.998 115.66 84.3448 115.835 82.7122C116.01 81.0381 116.207 79.5105 116.426 78.1293C116.645 76.748 116.71 75.8062 116.623 75.3041C116.536 74.9274 116.404 74.5088 116.229 74.0482C116.054 73.6715 115.835 73.2529 115.573 72.7926C115.311 72.2905 114.939 71.7672 114.457 71.223ZM149.831 72.0392L161.907 72.1648C161.207 74.7181 160.682 76.8943 160.332 78.6941C160.026 80.4938 159.829 82.0008 159.741 83.2146C159.567 84.5958 159.523 85.7678 159.61 86.7302C159.741 87.6094 159.96 88.5509 160.266 89.5558C160.529 90.3928 160.923 91.3552 161.448 92.4436C161.973 93.5317 162.673 94.6202 163.548 95.7083C163.023 95.5408 162.454 95.4154 161.841 95.3315C161.229 95.2479 160.66 95.1853 160.135 95.1432C159.523 95.1014 158.91 95.1014 158.298 95.1432C157.685 95.1853 157.007 95.2479 156.263 95.3315C155.651 95.4154 154.907 95.5199 154.032 95.6456C153.157 95.7709 152.238 95.9384 151.275 96.1477C151.931 94.2643 152.435 92.632 152.785 91.2507C153.178 89.8695 153.463 88.7184 153.638 87.7978C153.813 86.7093 153.922 85.8305 153.966 85.1609C153.966 84.3236 153.966 83.382 153.966 82.3357C153.966 81.2473 153.966 80.201 153.966 79.1965C153.966 78.192 153.944 77.3131 153.901 76.5597C153.857 75.7644 153.769 75.262 153.638 75.0527L152.982 74.4249C152.719 74.2157 152.325 73.9228 151.8 73.5461C151.319 73.1276 150.663 72.6252 149.831 72.0392ZM154.491 62.3707C155.41 61.9104 156.329 61.7847 157.247 61.9939C158.21 62.2032 158.954 62.6008 159.479 63.1868C160.004 63.7728 160.179 64.4636 160.004 65.2589C159.873 66.0541 159.173 66.8282 157.904 67.5817C156.635 68.2933 155.519 68.5444 154.557 68.3351C153.594 68.1259 152.916 67.6864 152.522 67.0166C152.128 66.347 152.063 65.5726 152.325 64.6938C152.588 63.7728 153.31 62.9985 154.491 62.3707ZM165.254 63.7519C167.267 63.9194 169.039 64.0451 170.57 64.1287C172.145 64.1705 173.458 64.2331 174.508 64.317C175.733 64.4006 176.805 64.4636 177.724 64.5054C178.687 64.5472 179.911 64.5472 181.399 64.5054C182.668 64.5054 184.287 64.4845 186.256 64.4424C188.268 64.3588 190.718 64.2331 193.606 64.066L193.081 72.7926C191.812 74.0064 190.675 75.1366 189.668 76.1829C188.706 77.2292 187.852 78.1293 187.109 78.8824C186.278 79.7616 185.534 80.5569 184.877 81.2682C184.221 82.0217 183.477 82.9214 182.646 83.968C181.902 84.8887 181.005 86.0189 179.955 87.3583C178.905 88.6557 177.702 90.1835 176.345 91.9412C178.752 91.8159 180.721 91.6902 182.252 91.5648C183.784 91.3973 184.987 91.2508 185.862 91.1251C186.912 90.9576 187.677 90.8322 188.159 90.7483C188.596 90.5812 189.099 90.2253 189.668 89.6811C190.15 89.2208 190.74 88.53 191.44 87.6094C192.14 86.6885 192.928 85.4329 193.803 83.8424C193.803 85.14 193.803 86.249 193.803 87.17C193.847 88.0488 193.869 88.7814 193.869 89.3674V91.0624V92.5063C193.869 92.9666 193.869 93.5317 193.869 94.2016C193.912 94.8712 193.956 95.6247 194 96.4617C192.293 96.2525 190.74 96.1059 189.34 96.0223C187.94 95.8966 186.737 95.813 185.731 95.7709C184.549 95.7292 183.477 95.7292 182.515 95.7709C181.552 95.8548 180.349 95.9384 178.905 96.0223C177.68 96.1059 176.171 96.1898 174.377 96.2734C172.583 96.3569 170.461 96.4617 168.011 96.5871L166.567 89.9322C167.355 89.5976 168.295 88.9485 169.389 87.9861C170.483 87.0234 171.533 86.0398 172.539 85.0353C173.677 83.8633 174.88 82.5868 176.149 81.2055C177.374 79.8243 178.577 78.443 179.758 77.0618C180.764 75.8898 181.815 74.676 182.909 73.4204C184.046 72.1648 185.031 71.0555 185.862 70.0931C183.499 70.1767 181.552 70.3442 180.021 70.5952C178.49 70.8045 177.286 71.0137 176.411 71.223C175.361 71.4744 174.574 71.7672 174.048 72.1022C173.567 72.4786 172.976 73.0437 172.277 73.7971C171.664 74.4249 170.92 75.2829 170.045 76.3713C169.17 77.4176 168.164 78.778 167.026 80.4521C167.026 79.0708 167.004 77.8361 166.961 76.748C166.917 75.6178 166.873 74.676 166.829 73.9228C166.742 73.0437 166.676 72.2693 166.632 71.5997C166.545 70.9302 166.435 70.1976 166.304 69.4023C166.217 68.691 166.064 67.8748 165.845 66.9539C165.67 65.9911 165.473 64.9239 165.254 63.7519Z" fill="black"/>
</svg>
